<?xml version="1.0" encoding="utf-8"?>
<!-- Generator: Adobe Illustrator 19.1.0, SVG Export Plug-In . SVG Version: 6.00 Build 0)  -->
<svg version="1.1" id="Ebene_1" xmlns="http://www.w3.org/2000/svg" xmlns:xlink="http://www.w3.org/1999/xlink" x="0px" y="0px"
	 viewBox="-290 202 210 210" style="enable-background:new -290 202 210 210;" xml:space="preserve">
<style type="text/css">
	.st0{fill:#FFFFFF;stroke:#CCCCCC;stroke-width:0.75;}
	.st1{fill:#CCCCCC;}
	.st2{fill:none;stroke:#EF3A24;stroke-miterlimit:10;}
</style>
<title>Blank globe, focus on Africa</title>
<path class="st0" d="M-84.5,307.2c0,55.1-44.7,99.8-99.8,99.8s-99.8-44.7-99.8-99.8l0,0c0-55.1,44.7-99.8,99.8-99.8
	S-84.5,252.1-84.5,307.2z"/>
<path class="st1" d="M-191.8,401.2c-0.5-0.1-0.9-0.3-1-0.5c0-0.2-0.1-0.6-0.1-0.7c-0.1-0.5-2.4-2.5-3.9-3.4
	c-0.8-0.5-1.4-1.2-1.6-1.9c-0.2-0.6-0.5-1.1-0.7-1.1c-0.1,0-0.3-0.2-0.3-0.5c0-0.3-0.3-0.7-0.7-1c-0.4-0.3-0.6-0.6-0.5-0.8
	c0.1-0.2,0-0.3-0.3-0.2c-0.4,0.1-0.5,0-0.5-0.6c0-0.5-0.6-1.4-1.5-2.4c-1.6-1.6-2.3-3.7-1.6-4.6c0.2-0.2,0.4-0.8,0.5-1.3
	c0.1-0.5,0.7-1.2,1.2-1.6c1.2-0.9,1.2-1.2,0.3-2.8c-0.4-0.7-0.6-1.4-0.5-1.7c0.1-0.3-0.4-1.8-1.2-3.3c-1-2.1-1.8-3.3-3.2-4.5
	c-1.7-1.5-3.4-3.9-3.4-4.6c0-0.2,0.2-0.3,0.5-0.3c0.3,0,0.5-0.3,0.5-1.1c0-0.6,0.2-1.4,0.5-1.7c0.9-1.2,0.4-3.5-0.6-2.6
	c-0.2,0.2-0.6,0.4-0.8,0.4c-0.6,0-0.5-1,0.1-1.2c1-0.4-0.2-0.8-2.4-0.8c-1.1,0-2.2-0.1-2.4-0.3c-0.2-0.1-0.8-1-1.2-2
	c-0.8-1.5-1-1.8-2.1-2c-1.7-0.3-3.7-0.3-6.7,0c-2.3,0.3-2.6,0.2-4.2-0.6c-1.3-0.7-2.3-0.9-4.5-1.1c-3.2-0.2-3.5-0.4-6.4-4.1
	c-0.9-1.2-2.4-2.8-3.2-3.6c-1-0.9-1.4-1.5-1.1-1.7c0.6-0.4,0.1-2.3-0.8-3.3c-0.5-0.5-1.1-1.3-1.3-1.6c-0.2-0.3-0.7-1.1-1.1-1.6
	c-0.5-0.7-0.6-1.3-0.4-2c0.1-0.6,0.3-1.7,0.3-2.7c0-1.1,0.2-1.8,0.5-2.2c0.7-0.7,1.4-2.3,1-2.3c-0.2,0-0.3-0.4-0.3-1
	c0-0.5,0.1-1,0.3-1s0.3,0.3,0.3,0.6c-0.1,1.3,0.6,0.8,0.7-0.5c0.1-1,0-1.4-0.2-1.2c-0.4,0.3-0.4,0.3,0.1-2.5c0.4-1.9,0.8-2.7,1.9-4
	c0.8-0.9,1.7-1.7,2-1.8c0.3-0.1,0.6-0.4,0.6-0.7c0-0.9,1-2,1.9-2.2c0.5-0.1,1.1-0.6,1.4-1c0.4-0.7,0.6-0.8,1.2-0.7
	c0.5,0.1,0.8,0.1,0.8-0.2c0-0.2,0.2-0.4,0.4-0.3c0.2,0,0.6,0,0.9-0.1c0.3-0.1,0.9-0.4,1.4-0.5c0.7-0.2,0.9-0.6,1.1-1.6
	c0.3-1.8,2.3-3.8,4.2-4.3c1.9-0.5,3.3-2.2,3-3.8c-0.1-0.7-0.3-1-0.8-1c-0.3,0-0.7-0.2-0.8-0.3c-0.1-0.2-0.5-0.3-0.9-0.3
	c-0.8,0-0.8-0.3-0.1-1.1c0.3-0.4,0.4-1,0.3-1.7c-0.2-0.8,0-1.3,0.8-2.3c1.1-1.3,1.7-3,1.7-4.6c0-0.8,0.2-1,1.4-1.3
	c1.1-0.3,1.5-0.3,1.9,0.2c0.3,0.3,0.8,0.5,1.1,0.5c0.3,0,0.6,0.2,0.8,0.3c0.2,0.2,1.1,0.6,2,0.8c1.6,0.5,1.7,0.5,2.2-0.2
	c0.3-0.4,0.7-1.2,0.8-1.8c0.3-1.3-0.1-3.5-0.5-3.5c-0.2,0-0.3-0.2-0.3-0.5c0-0.3-0.2-0.5-0.5-0.7c-0.3-0.1-0.5-0.6-0.5-1.2
	c0-1,0.1-1,1.3-1c0.7,0,1.4,0.2,1.5,0.4c0.1,0.2,0.1,0.1,0-0.4c-0.2-0.6-0.1-0.8,0.3-0.6c0.3,0.1,0.6,0,0.7-0.2
	c0.1-0.3,0.4-0.2,0.8,0.2c0.6,0.6,0.7,0.6,2,0l1.3-0.6l-1.2-0.3c-0.6-0.2-2.3-0.3-3.7-0.4c-1.4-0.1-2.8-0.1-3.1-0.2
	c-0.9-0.1-0.7-0.6,0.3-0.8c0.5-0.1,1.2-0.4,1.6-0.7c0.5-0.4,0.6-0.6,0.2-0.8c-0.6-0.4-0.2-1.4,0.6-1.4c0.4,0,0.6-0.2,0.6-0.9
	c0-0.8,0.1-0.9,0.9-0.8c0.8,0.1,0.9,0,0.9-0.8c0-0.6-0.1-0.7-0.2-0.3c-0.1,0.3-0.4,0.6-0.7,0.6c-0.3,0-0.4-0.2-0.3-0.5
	c0.2-0.4,0.1-0.4-0.5-0.1c-0.4,0.2-0.7,0.7-0.7,1.1c0,0.4-0.3,0.9-0.6,1.2c-0.7,0.6-3.4,1.1-4.4,0.8c-1-0.3-0.9-1.7,0.2-2.2
	c0.5-0.2,0.8-0.6,0.7-0.8c-0.3-0.7,0.8-2.2,1.4-1.9c0.3,0.1,0.8-0.1,1.1-0.4c0.4-0.3,0.9-0.5,1.4-0.4c0.5,0.1,0.9-0.1,1.2-0.5
	c0.2-0.4,0.3-0.6,0-0.6c-0.6,0-0.4-0.7,0.2-0.7c0.6,0,0.6,0,0-0.2c-0.8-0.2-0.7-0.6,0.2-1.6c0.8-0.9,1.9-1.1,1.9-0.5
	c0,0.3,0.1,0.3,0.5,0c0.3-0.2,0.7-0.3,0.9-0.2c0.2,0.1,0.7,0,1-0.4c0.5-0.5,0.7-0.5,1.1-0.2c0.3,0.3,0.2,0.6-0.7,1.4
	c-0.9,0.8-1,1-0.4,1c0.9,0,0.9,1,0,1.8c-0.8,0.7-0.7,1.8,0.4,4.7c0.7,2,0.8,4.3,0.2,4.5c-0.2,0.1-0.3,0.3-0.2,0.4
	c0.4,0.4,2.1-0.7,3.1-2c0.8-1.1,1.1-1.2,2.5-1.2c1.8,0,1.9-0.1,2.2-2.6c0.2-2,0.5-2.4,2-2.9c1-0.3,1.3-0.4,1.5,0
	c0.1,0.2,0.3,0,0.3-0.7c0-1.2-0.5-1.4-1.5-0.6c-0.4,0.3-1.1,0.5-1.6,0.5c-1.5,0-1.9-0.9-1.6-3.4c0.3-2.7,0.8-3.6,2.5-4.4
	c0.7-0.3,1.4-0.7,1.4-0.9c0-0.1,0.5-0.5,1.2-0.7c0.8-0.3,1.6-1,2.4-2.1c0.7-0.9,1.5-1.9,2-2.1c0.4-0.2,0.7-0.5,0.7-0.6
	c-0.1-0.1-0.5,0-0.9,0.3c-0.4,0.2-0.8,0.3-0.9,0.2c-0.3-0.3,1.9-2.2,3.3-2.9c0.7-0.3,1.3-0.8,1.4-1c0.1-0.2,0.6-0.3,1.2-0.3
	c0.5,0,1-0.1,1-0.3c0-0.4,2-1,3.4-1c0.8,0,1.5,0.2,2.1,0.8c0.5,0.5,1.1,0.8,1.4,0.8c0.3,0,0.5,0.2,0.5,0.3s0.3,0.3,0.7,0.3
	c1.2,0,4.9,1.7,5.3,2.5c0.2,0.4,0.7,0.7,1.2,0.8c0.8,0,0.8,0,0.3-0.5c-0.3-0.3-0.5-0.8-0.5-1.1c0-0.3-0.2-0.6-0.3-0.6
	c-0.2,0-0.3-0.2-0.3-0.5c0-0.4,0.2-0.5,1.1-0.4c0.6,0.1,1.3,0.3,1.7,0.4c0.4,0.2,0.9-0.1,1.8-1.1c0.8-0.9,1.6-1.4,2.3-1.6
	c2.1-0.4,0.9-1.8-1.4-1.5c-0.9,0.1-1.8,0-2.4-0.4c-0.9-0.5-1.1-0.8-1.2-2.1c-0.1-0.9-0.3-2-0.4-2.4c-0.4-1.8-0.2-2.8,0.7-3.4
	c0.5-0.4,0.9-0.9,0.9-1.1c0-0.3,0.2-0.4,0.6-0.4c0.5,0.1,0.6,0.4,0.5,1.3c-0.1,0.6-0.1,2.3-0.2,3.6c0,2.2,0.1,2.5,0.7,3.1
	c1,0.8,3.9,1.3,5.6,1l1.3-0.2l-0.9-0.8c-0.5-0.4-0.9-1.1-0.9-1.5s-0.2-0.9-0.5-1.2c-0.3-0.3-0.6-1-0.7-1.7c-0.2-1.1-0.2-1.1,0.6-0.9
	c0.7,0.2,0.9,0.1,1-0.7l0.1-0.9l0.7,0.8c0.6,0.7,0.8,0.7,0.8,0.2c0-0.3-0.2-0.6-0.4-0.6c-0.2,0-0.3-0.3-0.2-0.8
	c0.1-0.5,0-0.8-0.1-0.8c-0.1,0-0.4-0.6-0.5-1.4c-0.4-2.8-0.6-3.2-1.2-3.3c-0.9-0.2-0.8-1.2,0.1-1.2c0.7,0,0.7,0,0.1-0.4
	c-0.4-0.2-0.8-0.5-0.9-0.7c-0.2-0.3-0.2-0.3-0.3,0c0,0.2-1,0.5-2.1,0.8c-2.2,0.4-3,0.3-3.9-0.8c-0.4-0.5-0.4-0.6,0.7-0.4
	c0.8,0.2,1.4,0.1,1.9-0.3c0.5-0.3,1.1-0.5,1.6-0.3c0.5,0.1,0.8,0.1,0.8-0.2c0-0.2,0.5-0.3,1.4-0.1c1.2,0.2,1.5,0.1,1.7-0.3
	c0.3-0.7,1.2-0.7,3.3,0c1.5,0.5,1.6,0.5,1.6-0.2c0-0.4,0.3-0.9,0.6-1.1c0.5-0.4,0.5-0.4-0.3-0.5c-1.1,0-1.3-0.3-1-1.3
	c0.2-0.6,0.4-0.7,1.6-0.7c0.8,0,1.2-0.1,1-0.2c-0.2-0.1-0.4-0.4-0.4-0.6c0-1.2-3.4-2.2-4.6-1.3c-1.2,0.9-3.4,0.3-3.4-0.9
	c0-0.4-0.1-0.7-0.3-0.8c-0.6-0.4-0.4-1.2,0.4-1.2c0.4,0,0.8,0.3,0.9,0.7c0.1,0.4,0.3,0.7,0.5,0.7c0.2,0,0.6,0.2,1,0.5
	c0.6,0.5,0.6,0.5,0.8,0c0.1-0.3,0.4-0.5,0.7-0.5c0.6,0,0.6-0.5,0.1-0.8c-0.2-0.1-0.3-0.5-0.2-0.8c0.1-0.4-0.2-0.8-1-1.3
	c-1.1-0.7-1.5-1.3-0.7-1.4c0.7,0-2.5-1.5-3.7-1.8c-0.6-0.1-2.8-1-4.8-2c-2-1-4-1.9-4.4-2c-0.8-0.2-1-0.8-0.3-0.8
	c0.3,0,0.5-0.2,0.5-0.3c0-0.2,0.2-0.3,0.5-0.3c0.3,0,0.5,0.1,0.5,0.3c0,0.2,0.4,0.3,0.9,0.3c0.5,0,1.4,0.2,1.9,0.5
	c1.3,0.7,4.5,1,4.5,0.5c0-0.3,0.2-0.3,0.6-0.2c0.3,0.1,2.3,0.6,4.4,1c2.1,0.4,4.1,1,4.5,1.1c1.6,0.8,3.3,1.3,3.9,1.3
	c0.4,0,1.1,0.2,1.6,0.5c0.9,0.5,1,0.5,1,0c0-0.3,0.2-0.5,0.3-0.5c0.2,0,0.3,0.2,0.3,0.5c0,0.3,0.3,0.5,0.6,0.5
	c0.3,0,1.4,0.3,2.4,0.7c1,0.4,2.4,0.8,3,0.9c1.3,0.3,4.6,2,4.6,2.4c0,0.4-3.8-0.5-6.8-1.5c-0.4-0.1-0.1,0.1,0.6,0.5
	c0.7,0.4,1.2,1,1.2,1.2c0,0.2,0.2,0.4,0.3,0.4s1,0.6,1.7,1.3c0.8,0.7,3,2.2,4.9,3.4c1.9,1.1,4,2.5,4.5,3.1c0.7,0.6,1.1,0.9,1.3,0.6
	c0.3-0.5-0.1-1-0.7-0.8c-0.5,0.2-0.5,0.1-0.6-1c0-0.2-0.3-0.6-0.5-0.8c-1-0.8,0-0.8,2.2,0c2.3,0.8,3,1.2,2.4,1.6
	c-0.2,0.1-0.1,0.3,0.2,0.4c0.3,0.1,0.7,0.1,0.9,0c0.2-0.1,0.5,0,0.8,0.2c0.3,0.2,0.9,0.4,1.5,0.4c0.7,0,1,0.2,0.9,0.6
	c-0.1,0.3,0.2,0.5,0.6,0.5c0.9,0,4.1,2.6,4.1,3.3c0,0.7-0.5,0.6-1.2-0.2c-0.3-0.4-0.9-0.8-1.3-1c-0.8-0.4,1.1,1.4,4.1,3.8
	c1.2,1,2.5,2.4,3.1,3.4c1,1.8,5.1,6.1,7,7.5l1.1,0.8l-1.2-1.7c-1.3-1.8-1.4-2.1-0.9-2.1c0.4,0,6.2,7.6,5.9,7.9
	c-0.1,0.1-0.4,0-0.7-0.2c-0.7-0.6-0.6-0.3,0.2,0.7c0.7,0.8,0.9,1.3,0.5,1.3c-0.1,0-1-0.8-1.9-1.8c-0.9-1-1.9-1.8-2-1.8
	c-0.2,0-0.6-0.3-1-0.6c-0.6-0.6-0.6-0.6-0.1,0.5c0.4,0.7,0.4,1.1,0.2,1.1c-0.2,0-0.3,0.2-0.2,0.5c0.1,0.3,0.1,0.4-0.2,0.3
	c-0.8-0.5,0.1,0.5,1,1.2l0.9,0.7l-0.1-1c-0.2-1.6,0.4-1.1,1.6,1.1c1.3,2.7,1.7,3.1,2,2.5c0.2-0.3,0.8,0.1,1.9,1.4
	c1.8,2,2.7,3.3,4.2,6.2c0.6,1.1,1.3,2.3,1.7,2.7c1.2,1.2,1.6,1.7,2.1,2.9c0.6,1.5,0.6,2.3,0,2c-0.4-0.2-0.4-0.1-0.2,0.4
	c0.4,0.8,1.7,7,1.7,8.3c0,0.6,0.3,1.8,0.7,2.7c0.8,1.8,1.2,5.1,0.7,5.1c-0.2,0-0.5-0.6-0.7-1.4c-0.6-2.3-0.7-2.6-0.9-2.5
	c-0.1,0.1,0.1,1.3,0.3,2.7c0.4,2.4,0.6,2.7,2,3.9c1.9,1.7,2.5,3.8,2.7,9.8c0.2,3.9,0.2,4.4-0.3,4.4c-0.3,0-0.5-0.2-0.5-0.5
	c0-0.3-0.2-0.5-0.5-0.5c-0.3,0-0.5-0.2-0.5-0.5c0-0.7-0.6-0.6-0.8,0.2c-0.3,0.9,0.1,4.3,0.5,4.3c0.2,0,0.4,0.6,0.5,1.4
	c0.2,1,0.4,1.5,0.9,1.7c1.5,0.7,2.2,6.8,1.5,11.8c-0.3,1.7-0.6,3.2-0.8,3.3c-0.2,0.1-0.4,0.3-0.4,0.6c0,0.3-0.2,0.5-0.3,0.5
	c-0.2,0-0.3-0.2-0.3-0.5c0-0.6-1.4-3.6-1.7-3.8c-0.4-0.2-0.3-0.8,0.3-1.2c0.5-0.3,0.4-0.5-0.3-1c-1.1-0.7-1.1-1.9,0-2.9
	c0.7-0.6,0.9-0.7,1.3-0.3c0.3,0.2,0.6,0.3,0.7,0.2c0.3-0.3-0.9-4.5-1.4-4.5c-0.2,0-0.6-1.1-1-2.6c-1-4.5-1.3-5.5-2-7.6l-0.7-2
	l-0.3,1.8c-0.3,1.7-1,2.6-1.3,1.6c-0.1-0.2-0.3-1.1-0.5-1.9c-0.2-0.8-0.5-1.4-0.7-1.4c-0.2,0-0.9-0.5-1.6-1.2
	c-0.7-0.6-1.4-1.2-1.5-1.2c-0.4,0-2.3,4.7-2.3,5.5c0,0.4-0.2,1.5-0.5,2.4c-0.6,1.9-1.3,5.9-1.2,7c0,0.4-0.3,1.5-0.8,2.4
	c-0.7,1.5-0.8,1.8-0.3,2.8c0.3,0.6,0.5,1.8,0.5,2.7c0,1.9,0.5,3.6,1.1,4c0.8,0.5,1.9,2.4,1.9,3.4c0,1.3-0.6,2.6-1.3,2.9
	c-0.7,0.3-1-0.3-1.3-2.3c-0.2-1.8-0.7-1.7-1.3,0.2c-0.3,0.8-0.5,1.1-1.2,1.1c-0.6,0-1-0.4-1.8-1.8c-0.5-1-1.1-1.9-1.3-1.9
	c-0.2-0.1-0.7-0.9-1.2-1.8c-0.4-0.9-1.2-2.1-1.6-2.6c-0.4-0.5-0.9-1.2-1-1.6c-0.1-0.4-0.4-0.7-0.6-0.7c-0.2,0-0.3-0.2-0.2-0.5
	c0.1-0.3-0.2-1-0.6-1.6c-0.4-0.7-0.8-1.3-0.8-1.5c0-0.2-0.5-0.3-1.3-0.2c-0.8,0.1-1.7-0.1-2.6-0.5c-0.7-0.4-1.5-0.7-1.7-0.7
	s-0.4-0.2-0.4-0.5c0-0.3-0.5-0.6-1-0.7c-0.6-0.1-1.1-0.4-1.2-0.7c-0.1-0.3-0.5-0.6-0.9-0.8c-0.5-0.3-0.9-0.2-1.5,0.3
	c-0.5,0.3-1.4,0.8-2,1.1c-0.6,0.3-1.5,0.7-1.8,1.1c-0.4,0.3-0.8,0.5-1,0.5c-0.2-0.1-1,0.1-1.8,0.3c-1.9,0.6-3.7,0.6-4.3,0.1
	c-0.6-0.6-0.5,0.5,0.1,1.7c0.6,1.1,1.2,1.4,2.3,1.2c0.5-0.1,1.2,0.1,2,0.6c1.2,0.7,1.2,0.8,1,1.9c-0.1,0.7-0.3,1.8-0.4,2.4
	c-0.1,0.8-0.4,1.2-0.7,1.2c-0.3,0-0.5,0.4-0.5,1.3c0,0.9-0.2,1.4-0.7,1.7c-0.4,0.2-0.7,0.7-0.7,1.1c0,0.4-0.3,0.8-0.7,0.9
	c-0.4,0.1-0.8,0.5-0.9,1.1c-0.1,0.6-0.5,1-0.9,1.1c-1.1,0.3-3.2,2.1-3.3,3c-0.1,0.5-0.7,1.2-1.8,1.8c-0.9,0.6-2,1.4-2.5,1.8
	c-1,0.9-4.1,2.9-4.5,2.9c-0.2,0-0.7,0.4-1.2,0.9c-0.5,0.5-1.3,0.9-2,0.9c-1,0-1.2-0.1-1.8-1.4c-0.9-1.9-1.2-2.6-1.3-3.8
	c-0.1-0.7-0.6-1.4-1.8-2.5c-0.9-0.8-1.8-1.8-1.9-2.2c-0.1-0.4-0.7-0.9-1.3-1.2c-0.8-0.4-1.2-0.8-1.5-2c-0.8-2.5-1.4-3.7-2.3-3.9
	c-0.4-0.1-1-0.6-1.3-1.2c-0.3-0.5-0.6-1-0.8-1c-0.2,0-0.4-0.3-0.5-0.7c-0.4-1.3-2.3-3.3-3-3.1c-0.3,0.1-0.6,0.4-0.6,0.7
	c0,0.6,1.7,3.7,2.7,4.7c0.4,0.4,0.6,0.9,0.5,1.1c-0.2,0.4,0.1,1.4,0.5,1.4c0.9,0,2.1,2,2.5,4.2c0.2,1.2,0.4,1.6,1.2,2.1
	c0.5,0.3,1.3,1.2,1.7,2.1c0.4,0.8,0.9,1.6,1.1,1.7c0.2,0.2,0.2,0.2-0.1,0.2c-0.2,0-0.3,0.2-0.2,0.5c0.3,0.7,0.8,0.6,0.8,0
	c0-0.4,0.2-0.5,0.7-0.4c0.5,0.1,0.7,0.3,0.7,0.8c0,0.4,0.5,1,1.4,1.6c2.1,1.4,3.3,2.6,3.5,3.6c0.4,1.5,1.3,1.8,3.1,0.9
	c0.9-0.4,1.8-0.9,2.1-1c0.3-0.2,0.7-0.4,1-0.5c2.2-0.9,4.2-1.9,4.4-2.3c0.1-0.3,0.6-0.5,0.9-0.5c0.5,0,0.6,0.2,0.6,0.9
	c0,0.5,0.2,1.1,0.4,1.4c0.3,0.3,0.3,0.5-0.2,0.7c-0.3,0.2-0.5,0.5-0.4,0.8c0.1,0.3-0.2,1.1-0.6,1.9c-0.4,0.8-1.1,2.4-1.5,3.6
	c-1.3,3.3-2.9,5.5-7.2,9.9c-6,6-9.2,9.8-8.2,9.8c0.5,0,0.4,1.3-0.2,1.4c-0.4,0.1-0.4,0.2,0,1c0.5,1,0.5,1.6-0.1,2.4
	c-0.6,0.7-0.2,2.1,0.6,2.3c0.6,0.2,0.6,0.5,0.6,3.1l-0.1,2.9l-1.4,1.3c-0.8,0.8-2.1,1.6-3.1,1.9c-0.9,0.3-1.9,0.8-2.1,1.1
	c-0.2,0.3-1,0.8-1.7,1.2c-1.4,0.7-1.8,1.4-1.3,2.1c0.4,0.5,0.1,2.7-0.4,3.2c-0.2,0.2-1.1,0.5-2.1,0.8c-1.4,0.5-1.8,0.8-2.3,1.8
	c-0.6,1.3-0.7,1.4-5.3,3.8c-2.8,1.5-4.7,1.9-10.4,2C-188.5,401.3-191.3,401.3-191.8,401.2z M-165.7,378.5c-0.3-0.7-0.7,1.2-0.4,2.1
	c0.1,0.5,0.2,0.4,0.4-0.5C-165.6,379.5-165.6,378.8-165.7,378.5z M-172.8,373.8c0-0.2-0.3-0.4-0.7-0.5c-0.6-0.1-0.6-0.1-0.3,0.3
	C-173.3,374.2-172.8,374.3-172.8,373.8z M-168,366.1c0.7,0,1.6-1.3,1.4-1.9c-0.2-0.4-0.4-0.5-1.1-0.3c-0.5,0.1-1,0.4-1,0.5
	c-0.1,0.2-0.3,0.3-0.6,0.3c-0.2,0-0.5,0.4-0.6,1c-0.1,0.8,0,1,0.5,1.1c0.4,0.1,0.7-0.1,0.8-0.3C-168.4,366.3-168.2,366.1-168,366.1z
	 M-87.2,321.8c-0.3-0.3-0.4-0.2-0.2,0.2c0.1,0.3,0.2,0.9,0.3,1.2c0,0.3,0.1,0.2,0.2-0.2C-86.9,322.5-87,322-87.2,321.8z
	 M-87.5,320.7c0-0.6-0.2-0.6-0.5,0c-0.1,0.3-0.1,0.5,0.1,0.5C-87.7,321.2-87.5,321-87.5,320.7z M-139.5,318.3c0-0.5,0.1-0.5,0.3,0
	c0.4,0.7,0.7,0.3,2-2.2c0.6-1.1,1.2-2.1,1.4-2.1s0.3-0.2,0.3-0.4c0-0.2-0.4,0-0.9,0.5c-1.1,1.2-3.2,1.5-4.7,0.7
	c-0.6-0.3-1.3-0.4-1.5-0.3c-0.5,0.2-2.9-1.9-2.9-2.6c0-0.2-0.2-0.3-0.4-0.3s-0.3-0.1-0.1-0.3c0.1-0.2,0-0.3-0.1-0.3
	c-0.2,0-0.4,0.3-0.4,0.7c0,0.6-0.1,0.7-0.3,0.2c-0.3-0.4-0.3-0.4-0.3,0.1c0,0.3-0.2,0.6-0.4,0.7c-0.3,0.1-0.2,0.4,0.3,0.7
	c0.4,0.3,0.7,0.8,0.7,1c0,0.3,0.2,0.4,0.5,0.3c0.3-0.1,0.7,0.2,1.1,0.8c0.3,0.5,0.8,1.1,1.1,1.4c0.3,0.2,0.3,0.4,0.1,0.3
	c-0.2-0.1-0.4,0-0.4,0.3c0,0.2,0.2,0.4,0.5,0.4c0.3,0,0.4-0.3,0.3-0.8c-0.1-0.7,0-0.8,0.6-0.6c0.9,0.3,0.8,0.2,1.2,1.4
	c0.2,0.7,0.2,1.1-0.1,1.2c-0.3,0.1-0.3,0.3,0.1,0.5C-140.9,319.9-139.5,319-139.5,318.3z M-190.4,313.2c0.1-1.3,0.3-1.6,1.3-2.1
	c1.5-0.8,2.8-0.7,3.6,0c0.3,0.3,1.2,0.7,1.9,0.9c0.7,0.1,1.4,0.4,1.6,0.5c0.2,0.1,0.9,0.3,1.5,0.5c0.6,0.1,1.9,0.3,2.8,0.5
	c1.4,0.3,1.8,0.2,2.6-0.3c0.9-0.7,2.6-0.8,4.6-0.5c1.5,0.3,1.7,0,2.6-3.5c0.9-3.5,0.7-5.4-0.6-5.6c-0.5-0.1-0.9,0.1-1.1,0.4
	c-0.4,0.8-2.2,1-2.9,0.5c-0.9-0.8-2.1-1-2.1-0.5c0,1-1.7,1.2-2.6,0.3c-0.5-0.5-0.6-0.5-0.7,0.2c-0.2,0.8-1,1.3-1,0.7
	c0-0.2-0.3-0.7-0.7-1.1c-0.4-0.4-0.6-0.9-0.5-1.2c0.1-0.4,0-0.4-0.5-0.3c-0.5,0.2-0.7,0.1-0.7-0.3c0-0.3,0.1-0.4,0.3-0.3
	c0.2,0.1,0.3,0,0.3-0.1s-0.2-0.4-0.5-0.4c-0.4,0-0.5-0.3-0.4-1.5c0-0.8,0-1.6-0.2-1.7c-0.1-0.1-0.2-0.1-0.2,0.2
	c0,0.2-0.2,0.4-0.5,0.4c-0.3,0-0.5-0.2-0.5-0.5c0-0.3,0.1-0.5,0.3-0.5c0.2,0,0.3-0.2,0.3-0.6c0-0.4-0.1-0.4-0.7,0.2
	c-0.4,0.4-1.1,0.9-1.7,1l-1,0.2l0.9,0.9c0.5,0.5,1,0.8,1.2,0.7c0.2-0.1,0.3-0.1,0.2,0.1s0.4,1,1.1,1.8c1.2,1.2,1.3,1.5,0.8,1.8
	c-0.3,0.2-0.5,0.4-0.3,0.6c0.1,0.2,0.1,0.3-0.1,0.3c-0.2,0-0.4-0.2-0.5-0.5c-0.1-0.3-0.4-0.4-0.7-0.3c-0.4,0.1-0.5,0-0.5-0.5
	c0-0.9-0.9-1.3-1.4-0.7c-0.2,0.3-0.3,0.9-0.3,1.4c0,0.5-0.2,0.9-0.3,0.9c-0.2,0-0.3-0.1-0.3-0.3c0-0.1-0.4-0.4-1-0.6
	c-0.7-0.3-1-0.6-1-1.1c0-0.4-0.2-0.7-0.5-0.7c-0.7,0-1-0.7-0.5-1c0.3-0.2,0.3-0.3,0-0.3c-0.2,0-0.4-0.3-0.4-0.7
	c0-0.4-0.2-0.7-0.3-0.9c-0.6-0.4-1.3-2.5-1.1-3.5c0.2-0.8,0-1.1-0.7-1.8c-0.5-0.5-1.4-1-2-1.2c-0.6-0.2-1.1-0.5-1.1-0.7
	c0-0.2-0.3-0.7-0.7-1.1c-1.2-1.2-1.9-2.2-1.9-2.7c0-0.8-0.7-0.6-1,0.3c-0.2,0.6-0.1,0.9,0.5,1.6c0.4,0.5,0.8,1.1,0.8,1.4
	c0,0.8,1.3,2.3,2,2.3c0.4,0,0.6,0.2,0.6,0.4c0,0.2,0.7,0.9,1.5,1.5c1.5,1.1,1.7,1.5,1.2,2.4c-0.3,0.4-0.4,0.4-1-0.3
	c-0.4-0.4-0.9-0.7-1-0.5c-0.2,0.1-0.2,0.3,0,0.6c0.2,0.2,0.4,0.6,0.4,0.9c0,0.8-1.7,2.6-2.4,2.6c-0.4,0-0.6,0.3-0.6,1
	c0,1.1-0.6,1.3-1.5,0.5c-0.3-0.3-0.6-0.5-0.7-0.5c-0.5,0-2.2-1.4-2.2-1.8c0-0.6,1.6-1,2.1-0.6c0.4,0.4,2.7,0.1,3-0.4
	c0.4-0.6,0-1.9-0.9-2.6c-1.8-1.6-2.6-2.2-2.8-2.2c-0.1,0-0.7-0.6-1.2-1.3c-0.5-0.7-1.2-1.3-1.4-1.3c-0.2,0-0.4-0.2-0.4-0.3
	c0-0.2,0.2-0.3,0.4-0.3c0.5,0,0-1.4-0.6-1.9c-0.4-0.3-0.8-0.2-1.5,0.1c-2,1-2.2,1.1-2.6,1.1c-0.2,0-0.9-0.2-1.5-0.5
	c-1.3-0.6-2-0.4-2,0.6c0,1-0.4,1.3-2.2,1.9c-1.8,0.6-3.6,2.2-3.3,3c0.2,0.6-1.7,2.8-2.2,2.5c-0.2-0.1-0.5,0.1-0.8,0.3
	c-0.6,0.6-1.5,0.6-2.7,0.2c-1.1-0.4-2.2-0.1-2.2,0.7c0,0.7,0.3,1,1.6,1.1c0.5,0,1.1,0.3,1.4,0.5c0.3,0.3,0.7,0.3,1.3,0.1
	c3.6-1.1,4.5-1.2,10.7-0.4c1,0.1,2.6,0.2,3.6,0.2c1.2,0,1.8,0.1,1.9,0.4c0.1,0.3,0.4,0.4,0.7,0.3c0.3-0.1,0.5,0.1,0.5,0.5
	c0,0.4-0.2,0.8-0.5,0.9c-0.4,0.2-0.4,0.3-0.1,0.9c1,1.9,1,2,0.5,2.3c-0.2,0.2-0.7,0.3-1,0.3c-0.3,0-0.6,0.2-0.8,0.5
	c-0.1,0.3-0.1,0.4,0.1,0.3c0.2-0.1,0.8,0.3,1.5,1c0.6,0.7,1.4,1.2,1.8,1.2c1.3,0,3.7,1.3,3.7,2c0,0.4,0.3,0.8,0.9,1
	c0.5,0.2,1.6,0.7,2.4,1.1C-191,315.1-190.6,315-190.4,313.2z M-183.9,307c-0.5-0.1-0.9-0.3-0.8-0.5c0.1-0.4,0.2-0.5,2.3-0.1
	C-179.4,306.9-180.8,307.5-183.9,307z M-172.1,306.9c0-0.5,0.9-1.3,1.1-1.1c0.1,0.1,0.6-0.1,1-0.4c0.9-0.6,1.2-0.3,0.4,0.4
	c-0.2,0.2-0.3,0.4-0.1,0.4c0.2,0,0,0.2-0.3,0.5C-170.7,307.3-172.1,307.4-172.1,306.9z M-179.9,306.1c0.2-0.6,0.5-0.6,0.5,0
	c0,0.3-0.1,0.5-0.3,0.5C-179.9,306.6-180,306.3-179.9,306.1z M-197.7,304.9c0-0.4,0.2-0.4,0.5,0c0.1,0.2,0,0.3-0.1,0.3
	C-197.6,305.2-197.7,305.1-197.7,304.9z M-204.8,298.7c0-0.2,0-0.4,0-0.6s0.1-1,0.1-1.7c0-1.1,0.1-1.4,0.5-1.3
	c0.4,0,0.5-0.2,0.4-1.2c-0.1-1,0.1-1.3,0.6-1.6c0.6-0.3,0.7-0.3,0.7,0.4c0,0.4-0.1,1.1-0.3,1.4c-0.1,0.4-0.1,1,0,1.4
	c0.2,0.6-0.1,2.5-0.5,3C-203.4,298.7-204.7,298.9-204.8,298.7z M-212.2,296.6c-0.3-0.5,0.1-1,0.7-1c0.3,0,0.5,0.2,0.4,0.6
	C-211.2,296.8-211.9,297.1-212.2,296.6z M-210.4,295.9c0-0.2,0.2-0.4,0.3-0.4c0.4,0,0.4,0.2,0,0.5
	C-210.2,296.2-210.4,296.1-210.4,295.9z M-182.7,302.5c-0.3-0.3-0.4-0.2-0.4,0.1c0,0.7,0.4,1.1,0.6,0.6
	C-182.4,303-182.5,302.7-182.7,302.5z M-145.7,297.8c0.5-0.4,0.5-0.6,0.2-1.5c-0.2-0.6-0.5-1.1-0.7-1.1c-0.1,0-0.3-0.2-0.3-0.4
	c0-0.2-0.3-1-0.7-1.7c-0.4-0.7-0.7-1.4-0.7-1.7c0-0.3-0.2-0.6-0.5-0.9c-0.3-0.2-0.5-0.8-0.5-1.2c0-0.6-0.2-0.8-0.7-0.8
	c-0.4,0-1.1-0.4-1.5-0.8c-0.5-0.5-1-0.8-1.1-0.8c-0.2,0-0.6-0.3-0.9-0.8c-0.8-1-1.6-1.3-2.1-0.7c-0.3,0.4-0.3,0.7-0.1,1.2
	c0.2,0.4,0.4,1.1,0.5,1.6c0.1,0.5,0.3,1,0.4,1.2c0.5,0.7,3.9,3.2,4.3,3.2c0.3,0,0.5,0.2,0.5,0.5c0,0.3-0.2,0.5-0.5,0.5
	c-0.4,0-0.5,0.4-0.4,1.9c0.1,1.8,0.2,1.9,0.9,2c0.5,0.1,1,0.3,1.1,0.4C-147.9,298.4-146.4,298.3-145.7,297.8z M-177.8,296.9
	c0-0.2-0.2-0.3-0.5-0.3c-0.3,0-0.4,0.2-0.3,0.3C-178.3,297.4-177.8,297.4-177.8,296.9z M-173.5,294.8c1.3-0.9,4.4-1.4,4.4-0.8
	c0,0.2,0.2,0.3,0.3,0.1c0.2-0.1,0.6,0,0.8,0.2c0.3,0.2,1.4,0.4,2.7,0.4c1.8,0,2.3-0.1,3-0.8c1-0.9,0.7-1.6-1.1-2.6
	c-0.7-0.4-2.1-1.1-3.1-1.6c-2-1-2.7-1.1-4-0.1c-1.1,0.8-1.9,0.8-1.9,0.1c0-0.3-0.3-0.6-0.7-0.7c-0.5-0.1-0.6-0.4-0.5-0.8
	c0.1-0.4,0-0.6-0.4-0.6c-0.3,0-0.7-0.2-0.8-0.4c-0.2-0.5-1.5,1-1.5,1.8c0,0.3-0.3,0.8-0.7,1.2c-0.4,0.3-0.7,1-0.7,1.5
	c0,0.5-0.1,0.9-0.3,0.9c-0.6,0-0.7,1.5-0.2,2.2C-177.5,295.9-175.2,295.9-173.5,294.8z M-167.7,287.1c0.1-0.3,0-0.6-0.2-0.8
	c-0.4-0.4-1.9,0.2-1.9,0.8C-169.8,287.8-167.9,287.7-167.7,287.1z M-191.9,273.1c0.8-0.6,1.9-0.6,2.5-0.1c0.3,0.3,0.5,0.3,0.6,0.1
	c0.1-0.2,0.5-0.4,0.8-0.6c0.3-0.1,0.6-0.7,0.7-1.6c0.1-0.8,0.4-2.2,0.8-3.2c0.5-1.5,0.8-1.8,1.6-2c0.9-0.2,0.8-0.3-1-0.4
	c-1.2-0.1-2.1,0-2.1,0.2c-0.2,0.6-0.9,1.1-1.6,1.3c-0.8,0.2-1.3,1.3-0.9,1.8c0.2,0.4-0.4,1.7-1,2.1c-0.2,0.1-0.7,0.2-1.1,0.3
	c-0.8,0-1,0.5-0.4,0.8c0.5,0.3,0.4,0.8-0.2,0.8c-0.3,0-0.5-0.1-0.5-0.3c0-0.2-0.4-0.3-0.8-0.3s-0.8,0.1-0.8,0.3
	c0,0.2,0.2,0.3,0.5,0.3c0.3,0,0.5,0.2,0.5,0.5C-194.4,273.8-192.8,273.8-191.9,273.1z M-189.7,269.1c0-0.4,0.2-0.9,0.5-1.1
	c0.8-0.7,0.9-0.2,0.1,0.9C-189.7,269.7-189.7,269.7-189.7,269.1z M-195.8,270c0.4-0.2,0.4-0.4,0.1-1.1c-0.2-0.5-0.3-0.5-0.2-0.2
	c0.1,0.4-0.1,0.8-0.4,1.1C-197,270.3-196.5,270.5-195.8,270z M-183.9,268.8c0.3-0.8-0.5-1.6-1.1-1.1c-0.4,0.3-0.4,0.5,0,1
	C-184.5,269.4-184.1,269.5-183.9,268.8z M-170.8,266.3c0-0.5-0.6-0.7-0.8-0.4c-0.2,0.3,0.1,0.7,0.5,0.7
	C-170.9,266.6-170.8,266.5-170.8,266.3z M-180.6,264.8c0.2-0.6,0.1-0.6-0.5,0c-0.2,0.3-0.3,0.5-0.1,0.5
	C-181,265.3-180.7,265.1-180.6,264.8z M-187,263.2c0.3-0.4,0.2-3.9-0.1-3.9c-0.1,0-0.6,0.4-1.2,0.9c-1.3,1.2-1.7,2.6-0.9,3.3
	C-188.6,264-187.4,263.8-187,263.2z M-176.8,263.5c0-0.4-0.9-1.2-1.5-1.2c-0.3,0-0.2,0.9,0.2,1.3
	C-177.5,264.1-176.8,264.1-176.8,263.5z M-184.9,258.1c1.3-1,1.5-1.8,0.5-1.8c-0.7,0-1.7,0.8-1.7,1.3c0,0.2-0.1,0.5-0.2,0.8
	C-186.6,259.2-186.2,259.1-184.9,258.1z M-174.6,257.3c-0.1-0.2-0.5-0.3-0.8-0.3c-0.5,0-0.4,0.1,0.1,0.3
	C-174.4,257.7-174.4,257.7-174.6,257.3z M-172.9,255.5c0-0.6-0.2-0.7-1.7-0.7c-1.5,0-1.7,0.1-1.6,0.7c0.1,0.5,0.4,0.7,1.7,0.7
	C-173.1,256.2-172.9,256.1-172.9,255.5z M-107.7,249.4c0.1-0.2,0-0.5-0.3-0.7c-0.4-0.3-0.4-0.3-0.3,0.3
	C-108.1,249.7-108,249.8-107.7,249.4z M-161.1,239.6c-0.3-0.3-0.4-0.3-0.2,0.2c0.1,0.3,0.3,0.5,0.4,0.4
	C-160.7,240.1-160.8,239.8-161.1,239.6z M-122.2,230.2c0-0.1-0.3-0.3-0.6-0.6c-0.5-0.4-0.5-0.4-0.1,0.1
	C-122.4,230.3-122.2,230.5-122.2,230.2z M-146.1,216.6c0-0.3-4.1-1.5-4.3-1.3c-0.2,0.2-0.1,0.3,2.3,1.1
	C-146.8,216.9-146.1,216.9-146.1,216.6z M-152.9,390.8c-0.1-0.1-0.2-0.8-0.2-1.6c0-1.1,0.1-1.5,1-2.3c0.9-0.8,1-1.1,0.8-2.2
	c-0.2-1.4,0.5-3.3,1.4-3.3c0.9,0,3.5-1.4,4.4-2.4c3.7-4.1,3.7-4.1,4.2-3.6c0.6,0.7,0.9,3.2,0.4,3.6c-0.2,0.2-0.5,0.2-0.6,0.1
	c-0.1-0.1-0.2,0.2-0.2,0.7c0,0.5-0.2,0.9-0.3,0.9c-0.2,0-0.3,0.1-0.3,0.3c0,0.4-2.2,4-4.2,6.7c-1,1.4-1.7,2-2.8,2.5
	C-151.1,390.9-152.7,391.2-152.9,390.8z M-135.1,382.5c0-0.2,0.1-0.4,0.3-0.4c0.4,0,0.4,0.2,0,0.5
	C-135,382.7-135.1,382.7-135.1,382.5z M-214.1,361.8c0-0.2,0.2-0.4,0.3-0.4c0.4,0,0.4,0.2,0,0.5C-213.9,362.1-214.1,362-214.1,361.8
	z M-269.9,358.9c-3.7-5.8-8.3-16.2-10.5-23.9c-3.6-12.2-4.9-26.2-3.6-37.7c0.5-4.7,1.1-5,1-0.5c-0.2,8.4-0.1,11.4,0.2,11.8
	c0.2,0.2,0.5,1.5,0.8,2.8c0.2,1.3,0.5,2.6,0.7,2.9c0.2,0.3,0.3,1.3,0.3,2.2c0,0.9,0.2,2.5,0.5,3.6c0.3,1.1,0.6,2.7,0.7,3.7
	c0.4,2.9,3.1,9.6,4.9,11.8c0.5,0.7,1.6,2.6,2.5,4.4c0.8,1.8,1.7,3.2,1.8,3.2c0.3,0,0.6,0.6,1.2,2.9c0.7,2.5,0.6,3.3-0.5,4.7l-1,1.3
	l0.9,2.6c1,2.9,1.8,6.1,1.6,6.1C-268.6,360.8-269.2,360-269.9,358.9z M-135.5,337.9c0.7-0.4,1.4-0.4,1.2,0c-0.1,0.2-0.5,0.3-0.9,0.3
	C-135.8,338.2-135.9,338.1-135.5,337.9z M-154.8,335.7c0-0.6,0.7-0.5,0.9,0.1c0.1,0.2-0.1,0.4-0.4,0.4
	C-154.5,336.2-154.8,335.9-154.8,335.7z M-255.9,323.5c-0.1-0.2-0.1-0.4,0-0.5c0.2-0.2,0.9,0.2,0.9,0.6
	C-255,324-255.6,324-255.9,323.5z M-254.7,322.2c0-0.4,0.2-0.4,0.5,0c0.1,0.2,0,0.3-0.1,0.3C-254.5,322.5-254.7,322.4-254.7,322.2z
	 M-256.4,320.1c-0.7-0.9-0.7-1.2-0.3-1.2c0.2,0,0.3,0.2,0.3,0.4s0.3,0.7,0.6,1c0.3,0.3,0.4,0.6,0.2,0.6
	C-255.7,320.9-256.1,320.5-256.4,320.1z M-92.9,310c-0.1-0.1-0.2-0.6-0.2-1.1l0-0.9l0.3,0.8C-92.5,309.7-92.6,310.4-92.9,310z
	 M-240.8,308.3c-0.1-0.2-0.2-0.5-0.1-0.6c0.3-0.3,0.6,0.1,0.5,0.6C-240.5,308.6-240.6,308.6-240.8,308.3z M-238.5,307.7
	c0.5-0.5,0.9-0.8,1-0.7c0.3,0.3-1,1.6-1.5,1.6C-239.2,308.6-239,308.2-238.5,307.7z M-242,306.9c0-0.2,0.2-0.3,0.5-0.3
	s0.4,0.2,0.3,0.3C-241.5,307.3-242,307.3-242,306.9z M-239.7,299.2c0-0.4,0.2-0.4,0.5,0c0.1,0.2,0,0.3-0.1,0.3
	C-239.5,299.6-239.7,299.4-239.7,299.2z M-244.7,286.6c0-0.4,0.2-0.4,0.5,0c0.1,0.2,0,0.3-0.1,0.3
	C-244.5,286.9-244.7,286.8-244.7,286.6z M-246.5,283.9c-0.3-0.5-0.1-0.7,0.5-0.3c0.3,0.2,0.3,0.3,0.1,0.5
	C-246.1,284.2-246.4,284.1-246.5,283.9z M-279.6,280.9c0-0.5,0.1-0.6,0.2-0.4c0.1,0.2,0.1,0.6,0,0.8
	C-279.5,281.6-279.6,281.4-279.6,280.9z M-279.4,277.9c-0.2-0.6,0.4-3.6,0.8-3.6c0.3,0,0.1,1.5-0.4,3.3
	C-279.1,278.2-279.2,278.3-279.4,277.9z M-275.7,266c0-0.2,0.1-0.3,0.3-0.3c0.2,0,0.3,0.2,0.3,0.3c0,0.2-0.1,0.3-0.3,0.3
	C-275.5,266.3-275.7,266.2-275.7,266z M-274.7,264.1c0-0.4,1.1-2.2,1.2-2c0.2,0.2-0.8,2.2-1.1,2.2
	C-274.6,264.3-274.7,264.2-274.7,264.1z M-205.7,261.9c0-0.3,0.2-0.7,0.3-0.8c0.6-0.4,0.7,0,0.2,0.7
	C-205.6,262.4-205.7,262.4-205.7,261.9z M-273.3,261.4c0-0.2,0.2-0.4,0.3-0.5c0.2-0.1,0.3-0.1,0.3,0.1c0,0.2-0.2,0.4-0.3,0.5
	C-273.2,261.6-273.3,261.5-273.3,261.4z M-208.6,258c0-0.4,0.2-0.7,0.4-0.7c0.3,0,0.4,0.2,0.1,0.7
	C-208.5,258.8-208.6,258.8-208.6,258z M-251.6,255.9c0-0.2,0.2-0.6,0.3-0.8c0.2-0.3,0.1-0.4-0.3-0.4c-0.3,0-0.5-0.2-0.5-0.5
	c0-0.3,0.2-0.4,0.5-0.3c0.6,0.2,0.5-0.2-0.1-2.3c-0.1-0.4,0-0.7,0.5-0.8c0.4-0.1,0.7-0.3,0.7-0.4c0-0.1,0.3-0.2,0.6-0.3
	c1-0.1,3.4-1.2,3.3-1.6c-0.1-0.2-0.5-0.4-0.9-0.4c-0.9,0-1.4-0.7-1.2-1.5c0.1-0.3,0-0.7-0.2-0.8c-0.2-0.1-0.3,0.1-0.3,0.4
	c0,0.3-0.2,0.9-0.5,1.3c-0.8,1-0.6-0.1,0.2-1.4c0.9-1.5,0.8-2-0.4-2.2c-1.6-0.3-1.7-0.3-0.7,0.6c0.9,0.8,0.9,0.8,0.3,1.7
	c-0.3,0.5-0.8,0.9-1.1,0.9c-0.3,0-0.5,0.1-0.5,0.3s-0.3,0.4-0.7,0.5c-0.4,0.1-0.6,0.3-0.6,0.5c0.1,0.7-0.5,2.4-0.9,2.4
	c-0.3,0-0.4,0.1-0.3,0.3c0.1,0.2,0.6,0.2,1.1,0.1c0.8-0.1,0.9-0.1,0.3,0.3c-0.3,0.3-0.6,0.7-0.6,0.9c0,0.5-1.6,0.2-2.4-0.5
	c-0.3-0.3-0.8-0.5-1.1-0.5c-0.5,0-0.5-0.1-0.2-0.7c0.2-0.4,0.7-0.8,1-0.9c0.3-0.1,0.6-0.3,0.6-0.5c0-0.2-0.1-0.2-0.3-0.1
	c-0.2,0.1-0.5-0.2-0.7-0.6c-0.2-0.5-0.5-0.8-0.7-0.8c-0.5,0-2,1.3-2,1.7c0,0.2-0.1,0.4-0.4,0.5c-0.3,0.1-0.4,0-0.3-0.4
	c0.1-0.3,0.1-0.5-0.1-0.5c-0.2,0-0.3-0.2-0.3-0.6c0-0.5,0-0.5-0.6,0c-0.3,0.3-0.8,0.6-1,0.6c-0.2,0-1.1,0.7-2,1.5
	c-1.3,1.2-1.8,1.4-2.6,1.3c-0.7-0.1-1.1,0-1.8,0.8l-0.8,1l0.6-1.1c0.3-0.6,1.9-2.8,3.4-4.9c14.8-19.8,36.3-33.5,60.5-38.3
	c9.4-1.9,20.7-2.7,26.3-1.8c1.6,0.2,2.6,0.5,2.2,0.6c-0.4,0.1-0.9,0.3-1,0.6c-0.1,0.3-0.6,0.5-1.3,0.5c-1.2,0-1.8,0.5-0.9,0.8
	c0.5,0.1,0.5,0.2-0.1,0.2c-0.4,0-0.9,0.2-1.1,0.4c-0.3,0.3-2.5,0.4-7.1,0.5c-8,0.1-8.6,0.2-10.9,1.2c-1,0.4-2.6,0.9-3.5,1
	c-0.9,0.1-2,0.4-2.3,0.5c-0.3,0.2-1.1,0.4-1.6,0.5c-0.7,0.2-0.9,0.3-0.5,0.5c0.3,0.2,0.6,0.2,0.7,0.1c0.1-0.1,0.8,0,1.4,0.2
	c0.7,0.2,1.2,0.2,1.4,0c0.1-0.2,0-0.3-0.2-0.3c-0.3,0-0.3-0.1-0.1-0.3c0.6-0.5,2.6-0.5,3.4,0c0.7,0.5,0.7,0.6,0.2,0.9
	c-0.6,0.3-2.9,0.9-5.2,1.2c-0.9,0.1-1.3,0.4-1.4,1c-0.2,0.7-0.4,0.8-2.6,0.8c-2.6,0-5.7,0.7-5.5,1.3c0.2,0.5,1.8,0.6,2.3,0.2
	c1.4-1.1,4.7-1.3,4.4-0.3c-0.2,0.5,0.7,1,1,0.5c0.1-0.2,0.5-0.3,0.8-0.3c0.4,0,0.6-0.2,0.6-0.5c0-0.4,0.2-0.5,0.5-0.3
	c0.3,0.1,0.8,0.2,1,0.2c0.4,0,0.4,0.1,0,0.5c-0.8,0.8-0.3,1.4,1,1.2c0.8-0.1,1.1,0,1,0.2s0.2,0.4,1.3,0.4c1.1,0,1.6,0.2,1.7,0.5
	c0.1,0.3,0.4,0.5,0.7,0.5c0.4,0,0.6,0.4,0.4,0.8c0,0.1,0.2,0.4,0.6,0.6c0.6,0.4,0.6,0.6,0.3,1.3c-0.2,0.5-0.8,0.9-1.2,1.1l-0.8,0.2
	l0.7,0.7c0.4,0.4,1,0.7,1.4,0.8c0.4,0,1.2,0.3,1.8,0.6c0.8,0.4,1,0.7,0.9,1.4c-0.1,0.5-0.3,1-0.6,1.1c-0.4,0.2-0.4,0.3,0,0.3
	c0.2,0,0.3,0.2,0.2,0.3c-0.1,0.2,0,0.3,0.3,0.3c0.3,0,0.5,0.2,0.5,0.5c0,0.3-0.2,0.5-0.5,0.5c-0.7,0-3.5,1.3-3.5,1.6
	c0,0.2-0.3,0.2-0.8,0.1c-0.4-0.1-0.6-0.1-0.3,0.1c0.3,0.1,0.3,0.4,0.1,0.9c-0.2,0.4-0.4,0.6-0.6,0.5c-0.1-0.1-0.4,0-0.6,0.3
	c-0.2,0.3-0.6,0.6-1,0.6c-0.7,0.1-1.2,0.8-1,1.4c0.1,0.4-0.6,0.7-1.7,0.8c-0.2,0-0.5,0.2-0.8,0.4c-0.3,0.2-0.7,0.4-0.9,0.4
	c-0.5,0-3.1,2.4-3.1,2.9c0,0.2-0.3,0.2-0.7,0.1c-0.5-0.1-0.6-0.1-0.5,0.1c0.2,0.3-2.4,1-3.1,0.8c-2.9-0.6-4-0.6-6.9-0.3
	c-1.2,0.2-1.9,0.1-2.2-0.1c-0.4-0.3-0.7-0.3-1.7,0.1c-0.7,0.3-1.2,0.6-1.2,0.8c0,0.2-0.5,0.3-1,0.3c-0.6,0-2.1,0.6-3.3,1.2
	c-2.7,1.4-3.2,1.5-2.8,0.4c0.1-0.4,0.3-1.2,0.3-1.8c0.1-1.4,1.2-2.8,4.3-5.5c2.9-2.6,6.9-4.7,6.9-3.6c0,0.2,0.4,0.2,0.8,0.1
	c0.8-0.2,0.8-0.2,0.2-0.6c-0.6-0.4-0.6-0.5,0.1-1c0.4-0.3,1.1-0.5,1.6-0.4c0.7,0.1,1,0,1.1-0.5c0.1-0.4,1.3-1.1,3-1.9
	c3.2-1.5,4.5-2.6,4.2-3.6c-0.1-0.5,0.1-0.8,1.2-1.4c0.7-0.4,1.5-0.7,1.6-0.6c0.1,0,0.5-0.1,0.8-0.2c0.4-0.2,1,0,1.8,0.5
	c1,0.6,1.3,0.7,1.5,0.3c0.6-1-2-1.7-7.6-1.9c-1-0.1-0.9-0.8,0.1-2c0.6-0.8,0.7-1,0.4-1c-0.3,0-0.6,0.2-0.7,0.3
	c-0.1,0.2-0.5,0.2-1.1-0.2c-0.8-0.5-1.1-0.5-3.1-0.2c-1.2,0.2-2.7,0.7-3.2,1c-0.5,0.4-1.2,0.6-1.6,0.6c-0.3,0-0.5,0.2-0.4,0.3
	c0.3,0.6,1.5,0.4,2.6-0.4c1.1-0.8,5-1.3,5.6-0.7c0.6,0.6-1.3,2.8-3.2,3.8c-1,0.5-1.9,1.1-2,1.4c-0.1,0.3-0.4,0.5-0.7,0.5
	c-0.3,0-0.5,0.2-0.5,0.4c0,0.5-2.7,1.9-3.5,1.9c-0.3,0-0.9,0.5-1.4,1.1c-2.1,2.5-2.3,2.6-3.8,2.5l-1.4-0.1l1.1-0.9
	c0.6-0.5,1.1-1,1.1-1.1c0-0.3-1.4,0.6-2.5,1.6c-0.6,0.6-1.6,1.2-2.3,1.4c-0.9,0.3-1.1,0.3-0.9,0c0.6-0.6,0.4-1-0.3-0.4
	c-1,0.9-1.1,0.6-0.3-0.8c0.4-0.8,1.4-1.9,2.2-2.5c0.8-0.6,1.5-1.6,1.7-2.1c0.2-0.6,0.7-1.1,1.2-1.3c1.1-0.4,1.2-0.4,1.2,0.2
	c0,0.7,1,1,1.4,0.5c0.2-0.3,0.3-0.3,0.3,0c0,0.2,0.2,0.4,0.4,0.4c0.2,0,0.3-0.3,0.2-0.7c-0.1-0.5,0-0.8,0.6-1
	c0.4-0.2,0.9-0.5,1.2-0.8c0.2-0.3,0.8-0.5,1.2-0.5c0.4,0,0.8-0.1,0.8-0.3c0-0.2-0.5-0.2-1.2,0c-0.7,0.2-1.9,0.2-2.6,0.1
	c-1.2-0.2-1.6,0-2.9,0.9c-0.9,0.6-1.6,1-1.8,0.8c-0.1-0.1,0-0.4,0.4-0.7c0.4-0.3,0.5-0.5,0.2-0.7c-0.6-0.4,0.7-1.5,1.4-1.3
	c0.9,0.3,1.4-0.1,0.8-0.7c-0.3-0.3-0.6-0.5-0.8-0.5c-0.2,0-0.5-0.2-0.7-0.5c-0.5-0.6-2.2-0.6-3.3,0c-0.5,0.3-1.3,0.7-2,1
	c-0.6,0.3-1.8,1.1-2.5,1.8c-0.8,0.7-2,1.7-2.8,2.4c-0.8,0.6-1.6,1.5-1.8,1.9c-0.2,0.4-0.8,1-1.4,1.2c-0.6,0.2-1.5,0.8-2,1.3
	c-0.6,0.5-1.4,1.1-2,1.4c-0.8,0.4-0.9,0.5-0.4,0.7c0.3,0.1,0.5,0.1,0.5-0.1c0-0.2,0.2-0.3,0.4-0.3c0.2,0,0.9-0.4,1.6-0.8
	c0.7-0.5,1.3-0.7,1.3-0.5c0.3,0.9,3.5-0.2,4.8-1.6c0.3-0.4,0.9-0.6,1.3-0.6c0.4,0,1.1-0.1,1.4-0.3c0.8-0.4,2.9-1.2,3.3-1.2
	c0.1,0,0,0.3-0.3,0.8c-0.3,0.4-0.4,0.9-0.3,1c0.1,0.1-0.4,0.6-1,1.2c-0.6,0.6-1.2,1.2-1.2,1.4c0,0.2-0.6,0.6-1.2,0.9
	c-1.3,0.5-2.8,1.7-2.8,2.3c0,0.2,0.7,0.2,1.6,0.1c1.3-0.2,1.5-0.1,1,0.3c-0.6,0.4-3.2,2.8-5.6,5c-0.7,0.6-1.4,1.7-1.6,2.4
	c-0.2,0.7-0.5,1.3-0.7,1.2c-0.1-0.1-0.4,0.3-0.6,0.8c-0.6,1.4-2.5,3.1-3,2.6c-0.3-0.3-0.3-0.3-0.2,0.2c0.2,0.4-0.1,0.6-0.8,0.9
	c-0.6,0.2-1,0.6-1,0.9c0,0.3-0.2,0.5-0.4,0.5c-0.3,0-0.3,0.1,0,0.4c0.5,0.5,0.2,1.2-0.9,2.2c-0.4,0.4-0.7,0.8-0.6,0.8
	c0.1,0-0.1,0.4-0.6,0.8C-251.1,256.4-251.7,256.6-251.6,255.9z M-255.2,241.8c0.2-0.7,0.1-0.9-0.1-0.7c-0.2,0.2-0.4,0.8-0.6,1.3
	c-0.2,0.7-0.1,0.9,0.1,0.7C-255.6,243-255.3,242.4-255.2,241.8z M-256.1,241.2c0-0.5-0.1-0.8-0.3-0.6c-0.4,0.2-0.4,1.5-0.1,1.5
	C-256.3,242-256.1,241.6-256.1,241.2z M-252.5,238c0.7-0.8,0.1-0.9-0.6-0.1c-0.6,0.6-0.7,0.8-0.2,0.8
	C-253.2,238.7-252.8,238.4-252.5,238z M-250.5,235c0.3-0.4-0.2-0.4-0.8,0c-0.4,0.3-0.4,0.3,0.1,0.3
	C-251,235.4-250.6,235.2-250.5,235z M-247.3,233c0.6-0.5,0.9-1.1,0.7-1.3c-0.2-0.3-0.1-0.3,0.2-0.1c0.3,0.2,0.4,0.1,0.3-0.2
	c-0.2-0.6-0.7-0.5-1.1,0.2c-0.2,0.3-0.7,1-1.2,1.5c-0.5,0.5-0.9,1.1-0.9,1.3C-249.3,234.8-249,234.6-247.3,233z M-217.9,225.7
	c-0.1-0.2-0.4-0.3-0.5-0.3c-0.2,0-0.2,0.1-0.1,0.3c0.1,0.2,0.4,0.3,0.5,0.3S-217.8,225.9-217.9,225.7z M-204.1,221.7
	c0.5,0,0.5,0,0.1,0.3c-0.4,0.3-0.4,0.3,0,0.3c0.3,0,0.7-0.2,0.9-0.5c0.3-0.4,0.3-0.5-0.2-0.7c-0.9-0.3-1.7,0.1-1.7,0.8
	c0,0.3,0.1,0.4,0.2,0.1C-204.8,221.9-204.4,221.7-204.1,221.7z M-214,218.7c0.3,0,0.6-0.2,0.7-0.5c0.3-0.7-0.1-0.6-1.4,0.2
	c-0.6,0.4-1,0.8-0.9,1c0.2,0.3,0.4,0.2,0.6-0.2C-214.7,219-214.3,218.7-214,218.7z M-210.2,215.7c0.1-0.2,0.1-0.3-0.1-0.3
	c-0.2,0-0.4,0.2-0.5,0.3c-0.1,0.2-0.1,0.3,0.1,0.3C-210.6,216.1-210.3,215.9-210.2,215.7z M-207.4,213.1c0-0.2-0.2-0.3-0.5-0.3
	c-0.3,0-0.5,0.2-0.5,0.3c0,0.2,0.2,0.3,0.5,0.3C-207.6,213.4-207.4,213.2-207.4,213.1z M-215.4,252.2c0-0.3-0.2-0.6-0.5-0.7
	c-0.6-0.2-0.6-0.8,0-0.8c0.3,0,0.5-0.2,0.5-0.5c0-0.3-0.2-0.5-0.4-0.5c-0.2,0-0.3-0.1-0.2-0.3c0.1-0.2,0.4-0.2,0.7-0.1
	c0.4,0.2,0.5,0.1,0.3-0.4c-0.3-0.7,0.2-1.2,1.2-1.2c0.5,0,0.6,0.2,0.4,0.7c-0.1,0.5,0,0.7,0.5,0.7c0.4,0,1.3,0.2,2,0.4
	c1.2,0.3,1.3,0.4,1.2,1.4c-0.1,1.4-1.2,1.9-3.8,1.9C-215,252.7-215.4,252.6-215.4,252.2z M-169.5,249.4c-0.5-0.5-0.2-1.1,0.4-1.1
	c0.4,0,0.7,0.2,0.7,0.7C-168.4,249.6-169.1,249.9-169.5,249.4z M-187.7,240.1c-0.2-0.4-0.4-0.9-0.4-1.2c0-0.3-0.2-0.5-0.3-0.5
	c-0.4,0-0.4-1.3-0.1-1.9c0.2-0.2,0.7-0.4,1.3-0.3c0.6,0.1,1.1,0,1.1-0.2c0-0.3,2.2-0.2,2.6,0.1c0.3,0.3-0.6,1.2-1.1,1.1
	c-0.6-0.2-0.6,0.5,0.1,1.2c0.6,0.7,0.4,1.3-0.5,1.2c-0.4,0-0.6-0.2-0.5-0.6c0.3-1-0.4-0.7-1.1,0.6
	C-187.3,240.8-187.3,240.8-187.7,240.1z M-232.5,235.6c0.2-0.2,0.5-0.3,0.6-0.2c0.1,0.1-0.1,0.3-0.4,0.4
	C-232.7,236-232.8,236-232.5,235.6z M-163.4,235.2c-0.6-0.7-0.3-0.8,0.4-0.1c0.3,0.3,0.5,0.6,0.3,0.6
	C-162.9,235.7-163.2,235.5-163.4,235.2z M-178.3,235.1c-0.3-0.1-0.2-0.3,0.2-0.7c0.4-0.4,0.7-0.5,0.9-0.2c0.2,0.2,0.3,0.5,0.2,0.6
	c-0.1,0.2,0,0.2,0.3,0.1c0.3-0.1,0.4-0.5,0.4-1.2c-0.1-1-0.1-1,0.8-0.7c0.7,0.3,1,0.2,1.1,0c0.2-0.3,0.3-0.3,0.5,0
	c0.1,0.2,0.1,0.4-0.1,0.4s-0.3,0.2-0.2,0.3c0.1,0.2,0,0.3-0.2,0.3c-0.3,0-0.3,0.1,0.1,0.3c0.4,0.3,0.4,0.3-0.2,0.3
	c-0.4,0-0.8-0.2-0.9-0.4c-0.1-0.3-0.2-0.2-0.2,0.1C-175.8,235.2-177.2,235.6-178.3,235.1z M-239.2,231.7c0.1-0.2,0.5-0.4,0.9-0.5
	c0.7-0.2,0.7-0.2,0.1,0.3C-238.9,232.1-239.5,232.2-239.2,231.7z M-230.7,228.4c0.7-0.4,1.1-0.4,0.8,0c-0.1,0.2-0.5,0.3-0.8,0.3
	C-231.1,228.7-231.1,228.6-230.7,228.4z M-229,226.7c0-0.2,0.2-0.3,0.5-0.3s0.5,0.2,0.5,0.3c0,0.2-0.2,0.3-0.5,0.3
	C-228.8,227-229,226.9-229,226.7z M-199.3,220.8c0.1-0.1,0.4-0.1,0.6,0c0.3,0.1,0.2,0.2-0.2,0.2C-199.2,221-199.4,221-199.3,220.8z
	 M-201.5,220.4c-0.4-0.1-0.5-0.3-0.3-0.4c0.4-0.2,3.3-0.4,3.1-0.1C-199.2,220.3-200.9,220.6-201.5,220.4z M-199.3,218.8
	c-0.7-0.3-0.5-0.8,0.3-0.7c0.4,0.1,0.7,0.3,0.7,0.4C-198.4,219-198.8,219.1-199.3,218.8z M-204.1,218.6c0-0.1,0.3-0.6,0.8-1
	c0.5-0.6,1.2-0.9,2.5-1c0.9-0.1,2.1-0.3,2.6-0.4c0.6-0.2,0.9-0.1,0.9,0.3c0,0.7-0.9,1.4-1.3,1.1c-0.2-0.1-1.1-0.1-1.9,0
	c-1.2,0.2-1.4,0.3-0.9,0.5c0.6,0.2,0.6,0.3-0.2,0.3c-0.5,0-1.2,0.1-1.6,0.2C-203.7,218.7-204.1,218.7-204.1,218.6z M-172.2,212.5
	c0.2-0.1,0.7-0.1,1,0c0.3,0.1,0.1,0.2-0.4,0.2C-172.2,212.7-172.4,212.6-172.2,212.5z"/>
<rect x="-166.2" y="286.6" class="st2" width="15.8" height="9.9"/>
</svg>
